<?xml version="1.0" encoding="UTF-8" standalone="no"?>
<!-- Generator: Iparigrafika Gear Generator by Abel Vincze http://geargenerator.com/ -->

<svg
   xmlns:dc="http://purl.org/dc/elements/1.1/"
   xmlns:cc="http://creativecommons.org/ns#"
   xmlns:rdf="http://www.w3.org/1999/02/22-rdf-syntax-ns#"
   xmlns:svg="http://www.w3.org/2000/svg"
   xmlns="http://www.w3.org/2000/svg"
   xmlns:sodipodi="http://sodipodi.sourceforge.net/DTD/sodipodi-0.dtd"
   xmlns:inkscape="http://www.inkscape.org/namespaces/inkscape"
   version="1.2"
   class="svggear"
   x="0px"
   y="0px"
   width="247.93161"
   height="247.93161"
   viewBox="0 0 247.9316 247.93161"
   xml:space="preserve"
   id="svg287"
   sodipodi:docname="gear_8.svg"
   inkscape:version="0.92.2 (5c3e80d, 2017-08-06)"><metadata
     id="metadata293"><rdf:RDF><cc:Work
         rdf:about=""><dc:format>image/svg+xml</dc:format><dc:type
           rdf:resource="http://purl.org/dc/dcmitype/StillImage" /><dc:title></dc:title></cc:Work></rdf:RDF></metadata><defs
     id="defs291" /><sodipodi:namedview
     pagecolor="#ffffff"
     bordercolor="#666666"
     borderopacity="1"
     objecttolerance="10"
     gridtolerance="10"
     guidetolerance="10"
     inkscape:pageopacity="0"
     inkscape:pageshadow="2"
     inkscape:window-width="1280"
     inkscape:window-height="751"
     id="namedview289"
     showgrid="false"
     inkscape:zoom="0.62588357"
     inkscape:cx="483.1956"
     inkscape:cy="147.16449"
     inkscape:window-x="0"
     inkscape:window-y="25"
     inkscape:window-maximized="1"
     inkscape:current-layer="svg287" /><g
     id="g297"
     transform="translate(-1.3726648e-7,-202.87454)"><g
       id="g91"
       transform="matrix(0.34804524,-0.93747774,-0.93747774,-0.34804524,61.92277,344.57861)"><polygon
         transform="translate(38.223009,-51.990245)"
         style="fill:#dddddd;stroke:#444444;stroke-width:1;stroke-miterlimit:10"
         points="76.5432,-98.8238 61.5078,-108.82 58.6554,-107.8991 55.8151,-106.5442 53.2009,-105.1542 50.8103,-103.746 48.6395,-102.3363 46.6839,-100.9414 44.9377,-99.5773 43.3942,-98.2592 42.0458,-97.0021 40.884,-95.8202 39.8994,-94.7272 39.0819,-93.736 38.4204,-92.8589 37.9032,-92.1072 37.518,-91.4915 37.2516,-91.0218 37.0904,-90.7068 37.0204,-90.5546 26.9621,-65.9516 0,-71.25 -0.0002,-97.8297 -0.0074,-97.9971 -0.0374,-98.3496 -0.1062,-98.8852 -0.2299,-99.6008 -0.4241,-100.4924 -0.7045,-101.5546 -1.0862,-102.7815 -1.5839,-104.1658 -2.2121,-105.6994 -2.9845,-107.3733 -3.9144,-109.1774 -5.0146,-111.1009 -6.2969,-113.1321 -7.7728,-115.2584 -9.4528,-117.4665 -11.3465,-119.7424 -13.4629,-122.0714 -15.7548,-124.0032 -33.4547,-120.4399 -34.8206,-117.7719 -35.8709,-114.8054 -36.7365,-111.974 -37.4312,-109.2878 -37.9693,-106.756 -38.3659,-104.3869 -38.636,-102.1875 -38.7955,-100.1641 -38.86,-98.3217 -38.8458,-96.6645 -38.7691,-95.1954 -38.6463,-93.9165 -38.4938,-92.8284 -38.328,-91.9312 -38.1651,-91.2235 -38.0213,-90.703 -37.9125,-90.3663 -37.8544,-90.2091 -27.5698,-65.6999 -50.3814,-50.3814 -69.1761,-69.1759 -69.2997,-69.2892 -69.5701,-69.5172 -69.9975,-69.8473 -70.591,-70.2659 -71.3587,-70.7589 -72.3081,-71.3118 -73.4455,-71.9095 -74.7763,-72.5363 -76.3049,-73.1766 -78.0347,-73.814 -79.968,-74.4322 -82.106,-75.0144 -84.4491,-75.5439 -86.9962,-76.0038 -89.7455,-76.3772 -92.6939,-76.6475 -95.8373,-76.7978 -98.8238,-76.5432 -108.82,-61.5078 -107.8991,-58.6554 -106.5442,-55.8151 -105.1542,-53.2009 -103.746,-50.8103 -102.3363,-48.6395 -100.9414,-46.6839 -99.5773,-44.9377 -98.2592,-43.3942 -97.0021,-42.0458 -95.8202,-40.884 -94.7272,-39.8994 -93.736,-39.0819 -92.8589,-38.4204 -92.1072,-37.9032 -91.4915,-37.518 -91.0218,-37.2516 -90.7068,-37.0904 -90.5546,-37.0204 -65.9516,-26.9621 -71.25,0 -97.8297,0.0002 -97.9971,0.0074 -98.3496,0.0374 -98.8852,0.1062 -99.6008,0.2299 -100.4924,0.4241 -101.5546,0.7045 -102.7815,1.0862 -104.1658,1.5839 -105.6994,2.2121 -107.3733,2.9845 -109.1774,3.9144 -111.1009,5.0146 -113.1321,6.2969 -115.2584,7.7728 -117.4665,9.4528 -119.7424,11.3465 -122.0714,13.4629 -124.0032,15.7548 -120.4399,33.4547 -117.7719,34.8206 -114.8054,35.8709 -111.974,36.7365 -109.2878,37.4312 -106.756,37.9693 -104.3869,38.3659 -102.1875,38.636 -100.1641,38.7955 -98.3217,38.86 -96.6645,38.8458 -95.1954,38.7691 -93.9165,38.6463 -92.8284,38.4938 -91.9312,38.328 -91.2235,38.1651 -90.703,38.0213 -90.3663,37.9125 -90.2091,37.8544 -65.6999,27.5698 -50.3814,50.3814 -69.1759,69.1761 -69.2892,69.2997 -69.5172,69.5701 -69.8473,69.9975 -70.2659,70.591 -70.7589,71.3587 -71.3118,72.3081 -71.9095,73.4455 -72.5363,74.7763 -73.1766,76.3049 -73.814,78.0347 -74.4322,79.968 -75.0144,82.106 -75.5439,84.4491 -76.0038,86.9962 -76.3772,89.7455 -76.6475,92.6939 -76.7978,95.8373 -76.5432,98.8238 -61.5078,108.82 -58.6554,107.8991 -55.8151,106.5442 -53.2009,105.1542 -50.8103,103.746 -48.6395,102.3363 -46.6839,100.9414 -44.9377,99.5773 -43.3942,98.2592 -42.0458,97.0021 -40.884,95.8202 -39.8994,94.7272 -39.0819,93.736 -38.4204,92.8589 -37.9032,92.1072 -37.518,91.4915 -37.2516,91.0218 -37.0904,90.7068 -37.0204,90.5546 -26.9621,65.9516 0,71.25 0.0002,97.8297 0.0074,97.9971 0.0374,98.3496 0.1062,98.8852 0.2299,99.6008 0.4241,100.4924 0.7045,101.5546 1.0862,102.7815 1.5839,104.1658 2.2121,105.6994 2.9845,107.3733 3.9144,109.1774 5.0146,111.1009 6.2969,113.1321 7.7728,115.2584 9.4528,117.4665 11.3465,119.7424 13.4629,122.0714 15.7548,124.0032 33.4547,120.4399 34.8206,117.7719 35.8709,114.8054 36.7365,111.974 37.4312,109.2878 37.9693,106.756 38.3659,104.3869 38.636,102.1875 38.7955,100.1641 38.86,98.3217 38.8458,96.6645 38.7691,95.1954 38.6463,93.9165 38.4938,92.8284 38.328,91.9312 38.1651,91.2235 38.0213,90.703 37.9125,90.3663 37.8544,90.2091 27.5698,65.6999 50.3814,50.3814 69.1761,69.1759 69.2997,69.2892 69.5701,69.5172 69.9975,69.8473 70.591,70.2659 71.3587,70.7589 72.3081,71.3118 73.4455,71.9095 74.7763,72.5363 76.3049,73.1766 78.0347,73.814 79.968,74.4322 82.106,75.0144 84.4491,75.5439 86.9962,76.0038 89.7455,76.3772 92.6939,76.6475 95.8373,76.7978 98.8238,76.5432 108.82,61.5078 107.8991,58.6554 106.5442,55.8151 105.1542,53.2009 103.746,50.8103 102.3363,48.6395 100.9414,46.6839 99.5773,44.9377 98.2592,43.3942 97.0021,42.0458 95.8202,40.884 94.7272,39.8994 93.736,39.0819 92.8589,38.4204 92.1072,37.9032 91.4915,37.518 91.0218,37.2516 90.7068,37.0904 90.5546,37.0204 65.9516,26.9621 71.25,0 97.8297,-0.0002 97.9971,-0.0074 98.3496,-0.0374 98.8852,-0.1062 99.6008,-0.2299 100.4924,-0.4241 101.5546,-0.7045 102.7815,-1.0862 104.1658,-1.5839 105.6994,-2.2121 107.3733,-2.9845 109.1774,-3.9144 111.1009,-5.0146 113.1321,-6.2969 115.2584,-7.7728 117.4665,-9.4528 119.7424,-11.3465 122.0714,-13.4629 124.0032,-15.7548 120.4399,-33.4547 117.7719,-34.8206 114.8054,-35.8709 111.974,-36.7365 109.2878,-37.4312 106.756,-37.9693 104.3869,-38.3659 102.1875,-38.636 100.1641,-38.7955 98.3217,-38.86 96.6645,-38.8458 95.1954,-38.7691 93.9165,-38.6463 92.8284,-38.4938 91.9312,-38.328 91.2235,-38.1651 90.703,-38.0213 90.3663,-37.9125 90.2091,-37.8544 65.6999,-27.5698 50.3814,-50.3814 69.1759,-69.1761 69.2892,-69.2997 69.5172,-69.5701 69.8473,-69.9975 70.2659,-70.591 70.7589,-71.3587 71.3118,-72.3081 71.9095,-73.4455 72.5363,-74.7763 73.1766,-76.3049 73.814,-78.0347 74.4322,-79.968 75.0144,-82.106 75.5439,-84.4491 76.0038,-86.9962 76.3772,-89.7455 76.6475,-92.6939 76.7978,-95.8373 "
         stroke-miterlimit="10"
         class="gear"
         data-id="0"
         id="gearpoly0" /></g></g><g
     transform="rotate(72.3822,406.72362,639.42477)"
     id="g285"><polygon
       id="gearpoly2"
       data-id="2"
       class="gear"
       stroke-miterlimit="10"
       points="201.8595,-38.9049 200.5362,-39.0526 199.3028,-39.1631 198.1601,-39.2404 197.1091,-39.2885 196.1503,-39.3114 195.2844,-39.3132 194.5117,-39.298 193.8326,-39.2699 193.2472,-39.2328 192.7555,-39.1909 192.3574,-39.1483 192.0526,-39.1089 191.8409,-39.0769 191.7216,-39.0563 167.8035,-34.1841 158.2144,-65.5345 180.7655,-74.8759 180.8759,-74.9255 181.0693,-75.0175 181.3439,-75.1553 181.6978,-75.3426 182.1288,-75.583 182.6348,-75.8798 183.2135,-76.2363 183.8624,-76.6559 184.5792,-77.1419 185.3611,-77.6972 186.2054,-78.325 187.1093,-79.0283 188.0699,-79.8099 189.0841,-80.6725 190.1489,-81.6189 191.261,-82.6517 192.4172,-83.7733 193.614,-84.9862 194.848,-86.2925 196.1157,-87.6945 197.4135,-89.1942 198.7376,-90.7936 200.0843,-92.4945 201.4497,-94.2987 202.8301,-96.2076 202.7665,-97.523 193.2083,-115.3063 192.1463,-116.0851 189.7926,-115.9871 187.5345,-115.8436 185.3729,-115.6589 183.3085,-115.437 181.3416,-115.1821 179.4729,-114.8983 177.7025,-114.5899 176.0307,-114.2608 174.4573,-113.9154 172.9824,-113.5577 171.6056,-113.1918 170.3265,-112.8218 169.1447,-112.4519 168.0595,-112.086 167.07,-111.7282 166.1754,-111.3825 165.3747,-111.0528 164.6667,-110.7431 164.05,-110.4572 163.5234,-110.1989 163.0851,-109.972 162.7336,-109.7803 162.4672,-109.6273 162.2838,-109.5167 162.1815,-109.452 141.9485,-95.7976 121.092,-121.092 138.3518,-138.3523 138.4348,-138.4404 138.5783,-138.5993 138.7793,-138.8318 139.0345,-139.1403 139.3407,-139.5272 139.6946,-139.9951 140.0928,-140.5459 140.5318,-141.182 141.008,-141.9052 141.5178,-142.7175 142.0576,-143.6206 142.6236,-144.6163 143.212,-145.7059 143.8189,-146.891 144.4405,-148.1729 145.0727,-149.5526 145.7116,-151.0313 146.3532,-152.6098 146.9934,-154.289 147.6281,-156.0694 148.2531,-157.9516 148.8644,-159.936 149.4576,-162.0228 150.0287,-164.2121 150.5735,-166.5039 150.0114,-167.6949 134.3754,-180.4668 133.0961,-180.7799 130.9591,-179.7886 128.9279,-178.7919 127.0015,-177.794 125.1791,-176.799 123.4596,-175.8108 121.8417,-174.8335 120.3241,-173.871 118.9054,-172.9273 117.584,-172.006 116.3583,-171.1111 115.2263,-170.2462 114.1862,-169.4149 113.2359,-168.6208 112.3733,-167.8675 111.596,-167.1583 110.9019,-166.4966 110.2883,-165.8856 109.7526,-165.3285 109.2924,-164.8283 108.9046,-164.3882 108.5865,-164.0109 108.3352,-163.6992 108.1475,-163.4559 108.0204,-163.2835 107.9507,-163.1846 94.4831,-142.8268 65.5345,-158.2144 74.8753,-180.7658 74.9182,-180.8789 74.99,-181.0807 75.0867,-181.3724 75.2044,-181.755 75.3393,-182.2297 75.4872,-182.7974 75.6443,-183.4587 75.8064,-184.2143 75.9696,-185.0647 76.1298,-186.0103 76.2829,-187.0512 76.4248,-188.1877 76.5514,-189.4196 76.6586,-190.7467 76.7423,-192.1689 76.7984,-193.6855 76.8228,-195.2962 76.8115,-197.0001 76.7604,-198.7964 76.6654,-200.6841 76.5226,-202.6623 76.3279,-204.7295 76.0774,-206.8845 75.7672,-209.1257 75.3935,-211.4516 74.4184,-212.3368 55.085,-218.1528 53.7833,-217.9525 52.1884,-216.2189 50.6931,-214.5208 49.2953,-212.8617 47.9924,-211.2449 46.7819,-209.6739 45.6611,-208.1519 44.6274,-206.6819 43.6779,-205.2671 42.8096,-203.9103 42.0196,-202.6144 41.3048,-201.3821 40.662,-200.2161 40.0879,-199.1188 39.5792,-198.0927 39.1326,-197.1401 38.7445,-196.2631 38.4114,-195.4638 38.1298,-194.7441 37.8959,-194.1059 37.7061,-193.5508 37.5566,-193.0805 37.4437,-192.6964 37.3634,-192.3998 37.312,-192.1919 37.2854,-192.0739 32.6336,-168.1119 0,-171.25 -0.0003,-195.6593 -0.0039,-195.7803 -0.0149,-195.9942 -0.0371,-196.3006 -0.0748,-196.6992 -0.1319,-197.1894 -0.2124,-197.7705 -0.3204,-198.4415 -0.4597,-199.2017 -0.6344,-200.0498 -0.8483,-200.9847 -1.1052,-202.005 -1.409,-203.1093 -1.7635,-204.2958 -2.1723,-205.563 -2.6392,-206.9089 -3.1678,-208.3316 -3.7616,-209.829 -4.4241,-211.3988 -5.1588,-213.0388 -5.9689,-214.7465 -6.8579,-216.5194 -7.8288,-218.3548 -8.8849,-220.2499 -10.0291,-222.2018 -11.2645,-224.2076 -12.5042,-224.6523 -32.5916,-222.627 -33.7175,-221.9439 -34.5276,-219.7318 -35.2592,-217.5908 -35.9157,-215.523 -36.5008,-213.5308 -37.0179,-211.6161 -37.4709,-209.781 -37.8634,-208.0274 -38.1992,-206.3569 -38.4822,-204.7711 -38.7161,-203.2715 -38.9049,-201.8595 -39.0526,-200.5362 -39.1631,-199.3028 -39.2404,-198.1601 -39.2885,-197.1091 -39.3114,-196.1503 -39.3132,-195.2844 -39.298,-194.5117 -39.2699,-193.8326 -39.2328,-193.2472 -39.1909,-192.7555 -39.1483,-192.3574 -39.1089,-192.0526 -39.0769,-191.8409 -39.0563,-191.7216 -34.1841,-167.8035 -65.5345,-158.2144 -74.8759,-180.7655 -74.9255,-180.8759 -75.0175,-181.0693 -75.1553,-181.3439 -75.3426,-181.6978 -75.583,-182.1288 -75.8798,-182.6348 -76.2363,-183.2135 -76.6559,-183.8624 -77.1419,-184.5792 -77.6972,-185.3611 -78.325,-186.2054 -79.0283,-187.1093 -79.8099,-188.0699 -80.6725,-189.0841 -81.6189,-190.1489 -82.6517,-191.261 -83.7733,-192.4172 -84.9862,-193.614 -86.2925,-194.848 -87.6945,-196.1157 -89.1942,-197.4135 -90.7936,-198.7376 -92.4945,-200.0843 -94.2987,-201.4497 -96.2076,-202.8301 -97.523,-202.7665 -115.3063,-193.2083 -116.0851,-192.1463 -115.9871,-189.7926 -115.8436,-187.5345 -115.6589,-185.3729 -115.437,-183.3085 -115.1821,-181.3416 -114.8983,-179.4729 -114.5899,-177.7025 -114.2608,-176.0307 -113.9154,-174.4573 -113.5577,-172.9824 -113.1918,-171.6056 -112.8218,-170.3265 -112.4519,-169.1447 -112.086,-168.0595 -111.7282,-167.07 -111.3825,-166.1754 -111.0528,-165.3747 -110.7431,-164.6667 -110.4572,-164.05 -110.1989,-163.5234 -109.972,-163.0851 -109.7803,-162.7336 -109.6273,-162.4672 -109.5167,-162.2838 -109.452,-162.1815 -95.7976,-141.9485 -121.092,-121.092 -138.3523,-138.3518 -138.4404,-138.4348 -138.5993,-138.5783 -138.8318,-138.7793 -139.1403,-139.0345 -139.5272,-139.3407 -139.9951,-139.6946 -140.5459,-140.0928 -141.182,-140.5318 -141.9052,-141.008 -142.7175,-141.5178 -143.6206,-142.0576 -144.6163,-142.6236 -145.7059,-143.212 -146.891,-143.8189 -148.1729,-144.4405 -149.5526,-145.0727 -151.0313,-145.7116 -152.6098,-146.3532 -154.289,-146.9934 -156.0694,-147.6281 -157.9516,-148.2531 -159.936,-148.8644 -162.0228,-149.4576 -164.2121,-150.0287 -166.5039,-150.5735 -167.6949,-150.0114 -180.4668,-134.3754 -180.7799,-133.0961 -179.7886,-130.9591 -178.7919,-128.9279 -177.794,-127.0015 -176.799,-125.1791 -175.8108,-123.4596 -174.8335,-121.8417 -173.871,-120.3241 -172.9273,-118.9054 -172.006,-117.584 -171.1111,-116.3583 -170.2462,-115.2263 -169.4149,-114.1862 -168.6208,-113.2359 -167.8675,-112.3733 -167.1583,-111.596 -166.4966,-110.9019 -165.8856,-110.2883 -165.3285,-109.7526 -164.8283,-109.2924 -164.3882,-108.9046 -164.0109,-108.5865 -163.6992,-108.3352 -163.4559,-108.1475 -163.2835,-108.0204 -163.1846,-107.9507 -142.8268,-94.4831 -158.2144,-65.5345 -180.7658,-74.8753 -180.8789,-74.9182 -181.0807,-74.99 -181.3724,-75.0867 -181.755,-75.2044 -182.2297,-75.3393 -182.7974,-75.4872 -183.4587,-75.6443 -184.2143,-75.8064 -185.0647,-75.9696 -186.0103,-76.1298 -187.0512,-76.2829 -188.1877,-76.4248 -189.4196,-76.5514 -190.7467,-76.6586 -192.1689,-76.7423 -193.6855,-76.7984 -195.2962,-76.8228 -197.0001,-76.8115 -198.7964,-76.7604 -200.6841,-76.6654 -202.6623,-76.5226 -204.7295,-76.3279 -206.8845,-76.0774 -209.1257,-75.7672 -211.4516,-75.3935 -212.3368,-74.4184 -218.1528,-55.085 -217.9525,-53.7833 -216.2189,-52.1884 -214.5208,-50.6931 -212.8617,-49.2953 -211.2449,-47.9924 -209.6739,-46.7819 -208.1519,-45.6611 -206.6819,-44.6274 -205.2671,-43.6779 -203.9103,-42.8096 -202.6144,-42.0196 -201.3821,-41.3048 -200.2161,-40.662 -199.1188,-40.0879 -198.0927,-39.5792 -197.1401,-39.1326 -196.2631,-38.7445 -195.4638,-38.4114 -194.7441,-38.1298 -194.1059,-37.8959 -193.5508,-37.7061 -193.0805,-37.5566 -192.6964,-37.4437 -192.3998,-37.3634 -192.1919,-37.312 -192.0739,-37.2854 -168.1119,-32.6336 -171.25,0 -195.6593,0.0003 -195.7803,0.0039 -195.9942,0.0149 -196.3006,0.0371 -196.6992,0.0748 -197.1894,0.1319 -197.7705,0.2124 -198.4415,0.3204 -199.2017,0.4597 -200.0498,0.6344 -200.9847,0.8483 -202.005,1.1052 -203.1093,1.409 -204.2958,1.7635 -205.563,2.1723 -206.9089,2.6392 -208.3316,3.1678 -209.829,3.7616 -211.3988,4.4241 -213.0388,5.1588 -214.7465,5.9689 -216.5194,6.8579 -218.3548,7.8288 -220.2499,8.8849 -222.2018,10.0291 -224.2076,11.2645 -224.6523,12.5042 -222.627,32.5916 -221.9439,33.7175 -219.7318,34.5276 -217.5908,35.2592 -215.523,35.9157 -213.5308,36.5008 -211.6161,37.0179 -209.781,37.4709 -208.0274,37.8634 -206.3569,38.1992 -204.7711,38.4822 -203.2715,38.7161 -201.8595,38.9049 -200.5362,39.0526 -199.3028,39.1631 -198.1601,39.2404 -197.1091,39.2885 -196.1503,39.3114 -195.2844,39.3132 -194.5117,39.298 -193.8326,39.2699 -193.2472,39.2328 -192.7555,39.1909 -192.3574,39.1483 -192.0526,39.1089 -191.8409,39.0769 -191.7216,39.0563 -167.8035,34.1841 -158.2144,65.5345 -180.7655,74.8759 -180.8759,74.9255 -181.0693,75.0175 -181.3439,75.1553 -181.6978,75.3426 -182.1288,75.583 -182.6348,75.8798 -183.2135,76.2363 -183.8624,76.6559 -184.5792,77.1419 -185.3611,77.6972 -186.2054,78.325 -187.1093,79.0283 -188.0699,79.8099 -189.0841,80.6725 -190.1489,81.6189 -191.261,82.6517 -192.4172,83.7733 -193.614,84.9862 -194.848,86.2925 -196.1157,87.6945 -197.4135,89.1942 -198.7376,90.7936 -200.0843,92.4945 -201.4497,94.2987 -202.8301,96.2076 -202.7665,97.523 -193.2083,115.3063 -192.1463,116.0851 -189.7926,115.9871 -187.5345,115.8436 -185.3729,115.6589 -183.3085,115.437 -181.3416,115.1821 -179.4729,114.8983 -177.7025,114.5899 -176.0307,114.2608 -174.4573,113.9154 -172.9824,113.5577 -171.6056,113.1918 -170.3265,112.8218 -169.1447,112.4519 -168.0595,112.086 -167.07,111.7282 -166.1754,111.3825 -165.3747,111.0528 -164.6667,110.7431 -164.05,110.4572 -163.5234,110.1989 -163.0851,109.972 -162.7336,109.7803 -162.4672,109.6273 -162.2838,109.5167 -162.1815,109.452 -141.9485,95.7976 -121.092,121.092 -138.3518,138.3523 -138.4348,138.4404 -138.5783,138.5993 -138.7793,138.8318 -139.0345,139.1403 -139.3407,139.5272 -139.6946,139.9951 -140.0928,140.5459 -140.5318,141.182 -141.008,141.9052 -141.5178,142.7175 -142.0576,143.6206 -142.6236,144.6163 -143.212,145.7059 -143.8189,146.891 -144.4405,148.1729 -145.0727,149.5526 -145.7116,151.0313 -146.3532,152.6098 -146.9934,154.289 -147.6281,156.0694 -148.2531,157.9516 -148.8644,159.936 -149.4576,162.0228 -150.0287,164.2121 -150.5735,166.5039 -150.0114,167.6949 -134.3754,180.4668 -133.0961,180.7799 -130.9591,179.7886 -128.9279,178.7919 -127.0015,177.794 -125.1791,176.799 -123.4596,175.8108 -121.8417,174.8335 -120.3241,173.871 -118.9054,172.9273 -117.584,172.006 -116.3583,171.1111 -115.2263,170.2462 -114.1862,169.4149 -113.2359,168.6208 -112.3733,167.8675 -111.596,167.1583 -110.9019,166.4966 -110.2883,165.8856 -109.7526,165.3285 -109.2924,164.8283 -108.9046,164.3882 -108.5865,164.0109 -108.3352,163.6992 -108.1475,163.4559 -108.0204,163.2835 -107.9507,163.1846 -94.4831,142.8268 -65.5345,158.2144 -74.8753,180.7658 -74.9182,180.8789 -74.99,181.0807 -75.0867,181.3724 -75.2044,181.755 -75.3393,182.2297 -75.4872,182.7974 -75.6443,183.4587 -75.8064,184.2143 -75.9696,185.0647 -76.1298,186.0103 -76.2829,187.0512 -76.4248,188.1877 -76.5514,189.4196 -76.6586,190.7467 -76.7423,192.1689 -76.7984,193.6855 -76.8228,195.2962 -76.8115,197.0001 -76.7604,198.7964 -76.6654,200.6841 -76.5226,202.6623 -76.3279,204.7295 -76.0774,206.8845 -75.7672,209.1257 -75.3935,211.4516 -74.4184,212.3368 -55.085,218.1528 -53.7833,217.9525 -52.1884,216.2189 -50.6931,214.5208 -49.2953,212.8617 -47.9924,211.2449 -46.7819,209.6739 -45.6611,208.1519 -44.6274,206.6819 -43.6779,205.2671 -42.8096,203.9103 -42.0196,202.6144 -41.3048,201.3821 -40.662,200.2161 -40.0879,199.1188 -39.5792,198.0927 -39.1326,197.1401 -38.7445,196.2631 -38.4114,195.4638 -38.1298,194.7441 -37.8959,194.1059 -37.7061,193.5508 -37.5566,193.0805 -37.4437,192.6964 -37.3634,192.3998 -37.312,192.1919 -37.2854,192.0739 -32.6336,168.1119 0,171.25 0.0003,195.6593 0.0039,195.7803 0.0149,195.9942 0.0371,196.3006 0.0748,196.6992 0.1319,197.1894 0.2124,197.7705 0.3204,198.4415 0.4597,199.2017 0.6344,200.0498 0.8483,200.9847 1.1052,202.005 1.409,203.1093 1.7635,204.2958 2.1723,205.563 2.6392,206.9089 3.1678,208.3316 3.7616,209.829 4.4241,211.3988 5.1588,213.0388 5.9689,214.7465 6.8579,216.5194 7.8288,218.3548 8.8849,220.2499 10.0291,222.2018 11.2645,224.2076 12.5042,224.6523 32.5916,222.627 33.7175,221.9439 34.5276,219.7318 35.2592,217.5908 35.9157,215.523 36.5008,213.5308 37.0179,211.6161 37.4709,209.781 37.8634,208.0274 38.1992,206.3569 38.4822,204.7711 38.7161,203.2715 38.9049,201.8595 39.0526,200.5362 39.1631,199.3028 39.2404,198.1601 39.2885,197.1091 39.3114,196.1503 39.3132,195.2844 39.298,194.5117 39.2699,193.8326 39.2328,193.2472 39.1909,192.7555 39.1483,192.3574 39.1089,192.0526 39.0769,191.8409 39.0563,191.7216 34.1841,167.8035 65.5345,158.2144 74.8759,180.7655 74.9255,180.8759 75.0175,181.0693 75.1553,181.3439 75.3426,181.6978 75.583,182.1288 75.8798,182.6348 76.2363,183.2135 76.6559,183.8624 77.1419,184.5792 77.6972,185.3611 78.325,186.2054 79.0283,187.1093 79.8099,188.0699 80.6725,189.0841 81.6189,190.1489 82.6517,191.261 83.7733,192.4172 84.9862,193.614 86.2925,194.848 87.6945,196.1157 89.1942,197.4135 90.7936,198.7376 92.4945,200.0843 94.2987,201.4497 96.2076,202.8301 97.523,202.7665 115.3063,193.2083 116.0851,192.1463 115.9871,189.7926 115.8436,187.5345 115.6589,185.3729 115.437,183.3085 115.1821,181.3416 114.8983,179.4729 114.5899,177.7025 114.2608,176.0307 113.9154,174.4573 113.5577,172.9824 113.1918,171.6056 112.8218,170.3265 112.4519,169.1447 112.086,168.0595 111.7282,167.07 111.3825,166.1754 111.0528,165.3747 110.7431,164.6667 110.4572,164.05 110.1989,163.5234 109.972,163.0851 109.7803,162.7336 109.6273,162.4672 109.5167,162.2838 109.452,162.1815 95.7976,141.9485 121.092,121.092 138.3523,138.3518 138.4404,138.4348 138.5993,138.5783 138.8318,138.7793 139.1403,139.0345 139.5272,139.3407 139.9951,139.6946 140.5459,140.0928 141.182,140.5318 141.9052,141.008 142.7175,141.5178 143.6206,142.0576 144.6163,142.6236 145.7059,143.212 146.891,143.8189 148.1729,144.4405 149.5526,145.0727 151.0313,145.7116 152.6098,146.3532 154.289,146.9934 156.0694,147.6281 157.9516,148.2531 159.936,148.8644 162.0228,149.4576 164.2121,150.0287 166.5039,150.5735 167.6949,150.0114 180.4668,134.3754 180.7799,133.0961 179.7886,130.9591 178.7919,128.9279 177.794,127.0015 176.799,125.1791 175.8108,123.4596 174.8335,121.8417 173.871,120.3241 172.9273,118.9054 172.006,117.584 171.1111,116.3583 170.2462,115.2263 169.4149,114.1862 168.6208,113.2359 167.8675,112.3733 167.1583,111.596 166.4966,110.9019 165.8856,110.2883 165.3285,109.7526 164.8283,109.2924 164.3882,108.9046 164.0109,108.5865 163.6992,108.3352 163.4559,108.1475 163.2835,108.0204 163.1846,107.9507 142.8268,94.4831 158.2144,65.5345 180.7658,74.8753 180.8789,74.9182 181.0807,74.99 181.3724,75.0867 181.755,75.2044 182.2297,75.3393 182.7974,75.4872 183.4587,75.6443 184.2143,75.8064 185.0647,75.9696 186.0103,76.1298 187.0512,76.2829 188.1877,76.4248 189.4196,76.5514 190.7467,76.6586 192.1689,76.7423 193.6855,76.7984 195.2962,76.8228 197.0001,76.8115 198.7964,76.7604 200.6841,76.6654 202.6623,76.5226 204.7295,76.3279 206.8845,76.0774 209.1257,75.7672 211.4516,75.3935 212.3368,74.4184 218.1528,55.085 217.9525,53.7833 216.2189,52.1884 214.5208,50.6931 212.8617,49.2953 211.2449,47.9924 209.6739,46.7819 208.1519,45.6611 206.6819,44.6274 205.2671,43.6779 203.9103,42.8096 202.6144,42.0196 201.3821,41.3048 200.2161,40.662 199.1188,40.0879 198.0927,39.5792 197.1401,39.1326 196.2631,38.7445 195.4638,38.4114 194.7441,38.1298 194.1059,37.8959 193.5508,37.7061 193.0805,37.5566 192.6964,37.4437 192.3998,37.3634 192.1919,37.312 192.0739,37.2854 168.1119,32.6336 171.25,0 195.6593,-0.0003 195.7803,-0.0039 195.9942,-0.0149 196.3006,-0.0371 196.6992,-0.0748 197.1894,-0.1319 197.7705,-0.2124 198.4415,-0.3204 199.2017,-0.4597 200.0498,-0.6344 200.9847,-0.8483 202.005,-1.1052 203.1093,-1.409 204.2958,-1.7635 205.563,-2.1723 206.9089,-2.6392 208.3316,-3.1678 209.829,-3.7616 211.3988,-4.4241 213.0388,-5.1588 214.7465,-5.9689 216.5194,-6.8579 218.3548,-7.8288 220.2499,-8.8849 222.2018,-10.0291 224.2076,-11.2645 224.6523,-12.5042 222.627,-32.5916 221.9439,-33.7175 219.7318,-34.5276 217.5908,-35.2592 215.523,-35.9157 213.5308,-36.5008 211.6161,-37.0179 209.781,-37.4709 208.0274,-37.8634 206.3569,-38.1992 204.7711,-38.4822 203.2715,-38.7161 "
       style="fill:#dddddd;stroke:#444444;stroke-width:1;stroke-miterlimit:10" /></g><g
     transform="rotate(-126.2011,255.65381,-59.875497)"
     id="g190"><polygon
       id="gearpoly1"
       data-id="1"
       class="gear"
       stroke-miterlimit="10"
       points="142.7956,-94.1636 143.8954,-96.541 144.4889,-98.7317 132.2363,-114.6235 129.9667,-114.6068 127.3877,-114.1478 124.9448,-113.6393 122.6384,-113.0889 120.4688,-112.5039 118.436,-111.8918 116.5397,-111.2602 114.7792,-110.6163 113.1534,-109.9675 111.6611,-109.3211 110.3006,-108.6842 109.0701,-108.0639 107.9673,-107.4672 106.9897,-106.9009 106.1346,-106.3718 105.3988,-105.8865 104.7791,-105.4513 104.2717,-105.0726 103.8728,-104.7564 103.5782,-104.5088 103.3835,-104.3354 103.2841,-104.2417 85.34,-86.1315 60.625,-105.0056 73.372,-127.0846 73.4362,-127.2051 73.5523,-127.4386 73.7136,-127.788 73.9136,-128.256 74.1454,-128.8452 74.402,-129.5577 74.6765,-130.3953 74.9619,-131.3596 75.2508,-132.4517 75.5361,-133.6727 75.8105,-135.0231 76.0668,-136.5033 76.2975,-138.1131 76.4954,-139.8524 76.653,-141.7203 76.7631,-143.716 76.8184,-145.8382 76.8116,-148.0852 76.7354,-150.4552 76.5828,-152.9459 76.3466,-155.5547 75.7652,-157.7486 57.2082,-165.3851 55.2511,-164.2357 53.2471,-162.5488 51.3857,-160.8869 49.6635,-159.257 48.0771,-157.6656 46.6227,-156.1192 45.2963,-154.624 44.0935,-153.1861 43.0099,-151.8114 42.0408,-150.5054 41.181,-149.2736 40.4255,-148.1211 39.7688,-147.053 39.2053,-146.0738 38.7293,-145.188 38.3348,-144.3998 38.0157,-143.713 37.7656,-143.1314 37.5782,-142.6581 37.4469,-142.2963 37.3651,-142.0488 37.3258,-141.918 30.8409,-117.2621 0,-121.25 -0.0003,-146.7445 -0.0049,-146.881 -0.0211,-147.1412 -0.0561,-147.5244 -0.117,-148.0298 -0.2108,-148.6559 -0.3448,-149.4013 -0.5259,-150.2639 -0.7609,-151.2416 -1.0568,-152.3319 -1.4202,-153.532 -1.8577,-154.8387 -2.3758,-156.2487 -2.981,-157.7582 -3.6792,-159.3634 -4.4767,-161.0599 -5.3792,-162.8433 -6.3924,-164.7088 -7.5218,-166.6514 -8.7728,-168.6657 -10.1503,-170.7464 -11.6593,-172.8876 -13.2597,-174.4969 -33.1487,-171.8318 -34.269,-169.8579 -35.161,-167.3949 -35.9422,-165.025 -36.6186,-162.7524 -37.1968,-160.581 -37.6831,-158.5145 -38.0843,-156.5565 -38.4069,-154.7098 -38.658,-152.9775 -38.8443,-151.3619 -38.973,-149.8652 -39.0511,-148.4894 -39.0857,-147.236 -39.0841,-146.1063 -39.0534,-145.1012 -39.001,-144.2213 -38.934,-143.467 -38.8597,-142.8382 -38.7854,-142.3347 -38.7182,-141.9557 -38.6653,-141.7004 -38.6339,-141.5675 -31.9221,-116.9724 -60.625,-105.0056 -73.3725,-127.0843 -73.4448,-127.2002 -73.5889,-127.4174 -73.8108,-127.7319 -74.1162,-128.1391 -74.5106,-128.6344 -74.9993,-129.2129 -75.5874,-129.8694 -76.2798,-130.5987 -77.0811,-131.3949 -77.9959,-132.2525 -79.0282,-133.1654 -80.1819,-134.1274 -81.4607,-135.1321 -82.868,-136.1731 -84.4069,-137.2436 -86.0802,-138.3368 -87.8904,-139.4458 -89.8398,-140.5634 -91.9303,-141.6824 -94.1636,-142.7956 -96.541,-143.8954 -98.7317,-144.4889 -114.6235,-132.2363 -114.6068,-129.9667 -114.1478,-127.3877 -113.6393,-124.9448 -113.0889,-122.6384 -112.5039,-120.4688 -111.8918,-118.436 -111.2602,-116.5397 -110.6163,-114.7792 -109.9675,-113.1534 -109.3211,-111.6611 -108.6842,-110.3006 -108.0639,-109.0701 -107.4672,-107.9673 -106.9009,-106.9897 -106.3718,-106.1346 -105.8865,-105.3988 -105.4513,-104.7791 -105.0726,-104.2717 -104.7564,-103.8728 -104.5088,-103.5782 -104.3354,-103.3835 -104.2417,-103.2841 -86.1315,-85.34 -105.0056,-60.625 -127.0846,-73.372 -127.2051,-73.4362 -127.4386,-73.5523 -127.788,-73.7136 -128.256,-73.9136 -128.8452,-74.1454 -129.5577,-74.402 -130.3953,-74.6765 -131.3596,-74.9619 -132.4517,-75.2508 -133.6727,-75.5361 -135.0231,-75.8105 -136.5033,-76.0668 -138.1131,-76.2975 -139.8524,-76.4954 -141.7203,-76.653 -143.716,-76.7631 -145.8382,-76.8184 -148.0852,-76.8116 -150.4552,-76.7354 -152.9459,-76.5828 -155.5547,-76.3466 -157.7486,-75.7652 -165.3851,-57.2082 -164.2357,-55.2511 -162.5488,-53.2471 -160.8869,-51.3857 -159.257,-49.6635 -157.6656,-48.0771 -156.1192,-46.6227 -154.624,-45.2963 -153.1861,-44.0935 -151.8114,-43.0099 -150.5054,-42.0408 -149.2736,-41.181 -148.1211,-40.4255 -147.053,-39.7688 -146.0738,-39.2053 -145.188,-38.7293 -144.3998,-38.3348 -143.713,-38.0157 -143.1314,-37.7656 -142.6581,-37.5782 -142.2963,-37.4469 -142.0488,-37.3651 -141.918,-37.3258 -117.2621,-30.8409 -121.25,0 -146.7445,0.0003 -146.881,0.0049 -147.1412,0.0211 -147.5244,0.0561 -148.0298,0.117 -148.6559,0.2108 -149.4013,0.3448 -150.2639,0.5259 -151.2416,0.7609 -152.3319,1.0568 -153.532,1.4202 -154.8387,1.8577 -156.2487,2.3758 -157.7582,2.981 -159.3634,3.6792 -161.0599,4.4767 -162.8433,5.3792 -164.7088,6.3924 -166.6514,7.5218 -168.6657,8.7728 -170.7464,10.1503 -172.8876,11.6593 -174.4969,13.2597 -171.8318,33.1487 -169.8579,34.269 -167.3949,35.161 -165.025,35.9422 -162.7524,36.6186 -160.581,37.1968 -158.5145,37.6831 -156.5565,38.0843 -154.7098,38.4069 -152.9775,38.658 -151.3619,38.8443 -149.8652,38.973 -148.4894,39.0511 -147.236,39.0857 -146.1063,39.0841 -145.1012,39.0534 -144.2213,39.001 -143.467,38.934 -142.8382,38.8597 -142.3347,38.7854 -141.9557,38.7182 -141.7004,38.6653 -141.5675,38.6339 -116.9724,31.9221 -105.0056,60.625 -127.0843,73.3725 -127.2002,73.4448 -127.4174,73.5889 -127.7319,73.8108 -128.1391,74.1162 -128.6344,74.5106 -129.2129,74.9993 -129.8694,75.5874 -130.5987,76.2798 -131.3949,77.0811 -132.2525,77.9959 -133.1654,79.0282 -134.1274,80.1819 -135.1321,81.4607 -136.1731,82.868 -137.2436,84.4069 -138.3368,86.0802 -139.4458,87.8904 -140.5634,89.8398 -141.6824,91.9303 -142.7956,94.1636 -143.8954,96.541 -144.4889,98.7317 -132.2363,114.6235 -129.9667,114.6068 -127.3877,114.1478 -124.9448,113.6393 -122.6384,113.0889 -120.4688,112.5039 -118.436,111.8918 -116.5397,111.2602 -114.7792,110.6163 -113.1534,109.9675 -111.6611,109.3211 -110.3006,108.6842 -109.0701,108.0639 -107.9673,107.4672 -106.9897,106.9009 -106.1346,106.3718 -105.3988,105.8865 -104.7791,105.4513 -104.2717,105.0726 -103.8728,104.7564 -103.5782,104.5088 -103.3835,104.3354 -103.2841,104.2417 -85.34,86.1315 -60.625,105.0056 -73.372,127.0846 -73.4362,127.2051 -73.5523,127.4386 -73.7136,127.788 -73.9136,128.256 -74.1454,128.8452 -74.402,129.5577 -74.6765,130.3953 -74.9619,131.3596 -75.2508,132.4517 -75.5361,133.6727 -75.8105,135.0231 -76.0668,136.5033 -76.2975,138.1131 -76.4954,139.8524 -76.653,141.7203 -76.7631,143.716 -76.8184,145.8382 -76.8116,148.0852 -76.7354,150.4552 -76.5828,152.9459 -76.3466,155.5547 -75.7652,157.7486 -57.2082,165.3851 -55.2511,164.2357 -53.2471,162.5488 -51.3857,160.8869 -49.6635,159.257 -48.0771,157.6656 -46.6227,156.1192 -45.2963,154.624 -44.0935,153.1861 -43.0099,151.8114 -42.0408,150.5054 -41.181,149.2736 -40.4255,148.1211 -39.7688,147.053 -39.2053,146.0738 -38.7293,145.188 -38.3348,144.3998 -38.0157,143.713 -37.7656,143.1314 -37.5782,142.6581 -37.4469,142.2963 -37.3651,142.0488 -37.3258,141.918 -30.8409,117.2621 0,121.25 0.0003,146.7445 0.0049,146.881 0.0211,147.1412 0.0561,147.5244 0.117,148.0298 0.2108,148.6559 0.3448,149.4013 0.5259,150.2639 0.7609,151.2416 1.0568,152.3319 1.4202,153.532 1.8577,154.8387 2.3758,156.2487 2.981,157.7582 3.6792,159.3634 4.4767,161.0599 5.3792,162.8433 6.3924,164.7088 7.5218,166.6514 8.7728,168.6657 10.1503,170.7464 11.6593,172.8876 13.2597,174.4969 33.1487,171.8318 34.269,169.8579 35.161,167.3949 35.9422,165.025 36.6186,162.7524 37.1968,160.581 37.6831,158.5145 38.0843,156.5565 38.4069,154.7098 38.658,152.9775 38.8443,151.3619 38.973,149.8652 39.0511,148.4894 39.0857,147.236 39.0841,146.1063 39.0534,145.1012 39.001,144.2213 38.934,143.467 38.8597,142.8382 38.7854,142.3347 38.7182,141.9557 38.6653,141.7004 38.6339,141.5675 31.9221,116.9724 60.625,105.0056 73.3725,127.0843 73.4448,127.2002 73.5889,127.4174 73.8108,127.7319 74.1162,128.1391 74.5106,128.6344 74.9993,129.2129 75.5874,129.8694 76.2798,130.5987 77.0811,131.3949 77.9959,132.2525 79.0282,133.1654 80.1819,134.1274 81.4607,135.1321 82.868,136.1731 84.4069,137.2436 86.0802,138.3368 87.8904,139.4458 89.8398,140.5634 91.9303,141.6824 94.1636,142.7956 96.541,143.8954 98.7317,144.4889 114.6235,132.2363 114.6068,129.9667 114.1478,127.3877 113.6393,124.9448 113.0889,122.6384 112.5039,120.4688 111.8918,118.436 111.2602,116.5397 110.6163,114.7792 109.9675,113.1534 109.3211,111.6611 108.6842,110.3006 108.0639,109.0701 107.4672,107.9673 106.9009,106.9897 106.3718,106.1346 105.8865,105.3988 105.4513,104.7791 105.0726,104.2717 104.7564,103.8728 104.5088,103.5782 104.3354,103.3835 104.2417,103.2841 86.1315,85.34 105.0056,60.625 127.0846,73.372 127.2051,73.4362 127.4386,73.5523 127.788,73.7136 128.256,73.9136 128.8452,74.1454 129.5577,74.402 130.3953,74.6765 131.3596,74.9619 132.4517,75.2508 133.6727,75.5361 135.0231,75.8105 136.5033,76.0668 138.1131,76.2975 139.8524,76.4954 141.7203,76.653 143.716,76.7631 145.8382,76.8184 148.0852,76.8116 150.4552,76.7354 152.9459,76.5828 155.5547,76.3466 157.7486,75.7652 165.3851,57.2082 164.2357,55.2511 162.5488,53.2471 160.8869,51.3857 159.257,49.6635 157.6656,48.0771 156.1192,46.6227 154.624,45.2963 153.1861,44.0935 151.8114,43.0099 150.5054,42.0408 149.2736,41.181 148.1211,40.4255 147.053,39.7688 146.0738,39.2053 145.188,38.7293 144.3998,38.3348 143.713,38.0157 143.1314,37.7656 142.6581,37.5782 142.2963,37.4469 142.0488,37.3651 141.918,37.3258 117.2621,30.8409 121.25,0 146.7445,-0.0003 146.881,-0.0049 147.1412,-0.0211 147.5244,-0.0561 148.0298,-0.117 148.6559,-0.2108 149.4013,-0.3448 150.2639,-0.5259 151.2416,-0.7609 152.3319,-1.0568 153.532,-1.4202 154.8387,-1.8577 156.2487,-2.3758 157.7582,-2.981 159.3634,-3.6792 161.0599,-4.4767 162.8433,-5.3792 164.7088,-6.3924 166.6514,-7.5218 168.6657,-8.7728 170.7464,-10.1503 172.8876,-11.6593 174.4969,-13.2597 171.8318,-33.1487 169.8579,-34.269 167.3949,-35.161 165.025,-35.9422 162.7524,-36.6186 160.581,-37.1968 158.5145,-37.6831 156.5565,-38.0843 154.7098,-38.4069 152.9775,-38.658 151.3619,-38.8443 149.8652,-38.973 148.4894,-39.0511 147.236,-39.0857 146.1063,-39.0841 145.1012,-39.0534 144.2213,-39.001 143.467,-38.934 142.8382,-38.8597 142.3347,-38.7854 141.9557,-38.7182 141.7004,-38.6653 141.5675,-38.6339 116.9724,-31.9221 105.0056,-60.625 127.0843,-73.3725 127.2002,-73.4448 127.4174,-73.5889 127.7319,-73.8108 128.1391,-74.1162 128.6344,-74.5106 129.2129,-74.9993 129.8694,-75.5874 130.5987,-76.2798 131.3949,-77.0811 132.2525,-77.9959 133.1654,-79.0282 134.1274,-80.1819 135.1321,-81.4607 136.1731,-82.868 137.2436,-84.4069 138.3368,-86.0802 139.4458,-87.8904 140.5634,-89.8398 141.6824,-91.9303 "
       style="fill:#dddddd;stroke:#444444;stroke-width:1;stroke-miterlimit:10" /></g></svg>